<svg width="26" height="26" viewBox="0 0 26 26" fill="none" xmlns="http://www.w3.org/2000/svg">
<g filter="url(#filter0_d_3_154)">
<path d="M12.9645 1.85955C14.3768 1.85955 15.7573 2.27834 16.9316 3.06294C18.1058 3.84755 19.021 4.96275 19.5615 6.2675C20.1019 7.57225 20.2433 9.00797 19.9678 10.3931C19.6923 11.7782 19.0122 13.0505 18.0136 14.0491C17.015 15.0478 15.7427 15.7278 14.3576 16.0033C12.9724 16.2789 11.5367 16.1375 10.232 15.597C8.92722 15.0566 7.81202 14.1413 7.02742 12.9671C6.24281 11.7928 5.82403 10.4123 5.82403 9.00005C5.83134 7.10852 6.58599 5.29656 7.92351 3.95904C9.26103 2.62152 11.073 1.86687 12.9645 1.85955V1.85955ZM12.9645 0.272778C11.24 0.279833 9.55616 0.797669 8.12568 1.76091C6.69519 2.72416 5.58215 4.08962 4.92707 5.68493C4.272 7.28024 4.10426 9.03387 4.44502 10.7244C4.78579 12.415 5.61978 13.9667 6.84172 15.1837C8.06366 16.4006 9.61876 17.2283 11.3107 17.5621C13.0026 17.896 14.7556 17.7211 16.3482 17.0595C17.9408 16.3979 19.3017 15.2793 20.2591 13.8449C21.2165 12.4105 21.7275 10.7246 21.7275 9.00005C21.7275 7.85096 21.5006 6.71318 21.0598 5.652C20.619 4.59083 19.9729 3.62715 19.1587 2.81628C18.3445 2.00541 17.3782 1.36331 16.3153 0.926827C15.2523 0.490346 14.1136 0.268077 12.9645 0.272778V0.272778Z" fill="#4EA8DE"/>
</g>
<defs>
<filter id="filter0_d_3_154" x="0.272949" y="0.272705" width="25.4546" height="25.4545" filterUnits="userSpaceOnUse" color-interpolation-filters="sRGB">
<feFlood flood-opacity="0" result="BackgroundImageFix"/>
<feColorMatrix in="SourceAlpha" type="matrix" values="0 0 0 0 0 0 0 0 0 0 0 0 0 0 0 0 0 0 127 0" result="hardAlpha"/>
<feOffset dy="4"/>
<feGaussianBlur stdDeviation="2"/>
<feComposite in2="hardAlpha" operator="out"/>
<feColorMatrix type="matrix" values="0 0 0 0 0 0 0 0 0 0 0 0 0 0 0 0 0 0 0.25 0"/>
<feBlend mode="normal" in2="BackgroundImageFix" result="effect1_dropShadow_3_154"/>
<feBlend mode="normal" in="SourceGraphic" in2="effect1_dropShadow_3_154" result="shape"/>
</filter>
</defs>
</svg>
