<?xml version="1.0" encoding="UTF-8" standalone="no"?>
<svg
   width="445.04166"
   zoomAndPan="magnify"
   viewBox="0 0 333.78124 91.718752"
   height="122.29167"
   preserveAspectRatio="xMidYMid"
   version="1.0"
   id="svg342"
   sodipodi:docname="logo.svg"
   inkscape:version="1.2.2 (b0a8486, 2022-12-01)"
   xmlns:inkscape="http://www.inkscape.org/namespaces/inkscape"
   xmlns:sodipodi="http://sodipodi.sourceforge.net/DTD/sodipodi-0.dtd"
   xmlns="http://www.w3.org/2000/svg"
   xmlns:svg="http://www.w3.org/2000/svg">
  <sodipodi:namedview
     id="namedview344"
     pagecolor="#ffffff"
     bordercolor="#000000"
     borderopacity="0.25"
     inkscape:showpageshadow="2"
     inkscape:pageopacity="0.0"
     inkscape:pagecheckerboard="0"
     inkscape:deskcolor="#d1d1d1"
     showgrid="false"
     inkscape:zoom="0.472"
     inkscape:cx="225.63559"
     inkscape:cy="77.330508"
     inkscape:window-width="1440"
     inkscape:window-height="847"
     inkscape:window-x="0"
     inkscape:window-y="205"
     inkscape:window-maximized="1"
     inkscape:current-layer="svg342" />
  <defs
     id="defs248">
    <g
       id="g240" />
    <clipPath
       id="536628875b">
      <path
         d="m 266,132.99609 h 7 V 156 h -7 z m 0,0"
         clip-rule="nonzero"
         id="path242" />
    </clipPath>
    <clipPath
       id="c8bdd60597">
      <path
         d="m 238.26562,135 h 63 v 60.99609 h -63 z m 0,0"
         clip-rule="nonzero"
         id="path245" />
    </clipPath>
  </defs>
  <g
     fill="#ffffff"
     fill-opacity="1"
     id="g254"
     transform="translate(-19.441409,-129.54803)">
    <g
       transform="translate(0.843754,194.01678)"
       id="g252">
      <g
         id="g250" />
    </g>
  </g>
  <g
     fill="#ffffff"
     fill-opacity="1"
     id="g262"
     transform="translate(-19.441409,-129.54803)">
    <g
       transform="translate(19.628909,194.01678)"
       id="g260">
      <g
         id="g258">
        <path
           d="m 2.53125,0.46875 c -0.8125,0 -1.46875,-0.109375 -1.96875,-0.328125 -0.5,-0.21875 -0.75,-0.515625 -0.75,-0.890625 0,-0.4375 0.265625,-0.828125 0.796875,-1.171875 C 1.140625,-2.265625 1.90625,-2.59375 2.90625,-2.90625 4.539062,-3.414062 6.046875,-4.171875 7.421875,-5.171875 8.804688,-6.171875 10,-7.832031 11,-10.15625 c 1.75,-4.007812 3.359375,-7.765625 4.828125,-11.265625 1.476563,-3.507813 2.875,-6.957031 4.1875,-10.34375 1.320313,-3.382813 2.6875,-6.910156 4.09375,-10.578125 1.40625,-3.664062 2.894531,-7.660156 4.46875,-11.984375 0.3125,-0.875 0.59375,-1.75 0.84375,-2.625 0.25,-0.875 0.40625,-1.816406 0.46875,-2.828125 0.5625,-0.1875 1.125,-0.375 1.6875,-0.5625 0.5625,-0.1875 1.125,-0.46875 1.6875,-0.84375 0.5625,-0.375 0.953125,-0.9375 1.171875,-1.6875 0.226562,-0.75 0.4375,-1.25 0.625,-1.5 0.0625,-0.0625 0.140625,-0.09375 0.234375,-0.09375 0.09375,0 0.171875,0.0625 0.234375,0.1875 0.125,0.25 0.234375,0.5625 0.328125,0.9375 0.09375,0.375 0.203125,0.75 0.328125,1.125 1.5,4.761719 3.0625,9.621094 4.6875,14.578125 1.632812,4.949219 3.21875,9.726563 4.75,14.328125 1.539062,4.605469 2.953125,8.742188 4.234375,12.40625 1.28125,3.667969 2.296875,6.625 3.046875,8.875 0.882812,2.511719 1.828125,4.390625 2.828125,5.640625 1,1.25 2.046875,2.132813 3.140625,2.640625 1.101562,0.5 2.28125,0.875 3.53125,1.125 1.0625,0.1875 1.84375,0.484375 2.34375,0.890625 0.5,0.40625 0.75,0.828125 0.75,1.265625 0,0.375 -0.25,0.625 -0.75,0.75 -0.5,0.125 -1.15625,0.1875 -1.96875,0.1875 -0.875,0 -2.070312,-0.046875 -3.578125,-0.140625 -1.5,-0.09375 -3.101563,-0.1875 -4.796875,-0.28125 -1.6875,-0.09375 -3.25,-0.140625 -4.6875,-0.140625 -1.1875,0 -2.414062,0 -3.671875,0 -1.25,0 -2.40625,0.015625 -3.46875,0.046875 C 41.515625,-0.015625 40.601562,0 39.84375,0 39.03125,0 38.375,-0.09375 37.875,-0.28125 c -0.5,-0.1875 -0.75,-0.46875 -0.75,-0.84375 0,-0.4375 0.3125,-0.8125 0.9375,-1.125 0.625,-0.3125 1.34375,-0.53125 2.15625,-0.65625 2.070312,-0.320312 3.546875,-0.859375 4.421875,-1.609375 0.875,-0.75 1.3125,-1.625 1.3125,-2.625 0,-0.9375 -0.203125,-2.296875 -0.609375,-4.078125 -0.40625,-1.789062 -0.890625,-3.703125 -1.453125,-5.734375 -0.5625,-2.039063 -1.09375,-3.847656 -1.59375,-5.421875 -0.125,-0.5 -0.359375,-0.796875 -0.703125,-0.890625 C 41.25,-23.359375 40.632812,-23.40625 39.75,-23.40625 H 22 c -0.261719,0 -0.53125,0.109375 -0.8125,0.328125 -0.28125,0.21875 -0.546875,0.679687 -0.796875,1.375 -0.1875,0.625 -0.5,1.609375 -0.9375,2.953125 -0.4375,1.34375 -0.875,2.773438 -1.3125,4.28125 -0.4375,1.5 -0.8125,2.851562 -1.125,4.046875 -0.3125,1.1875 -0.46875,1.9375 -0.46875,2.25 0,1.375 0.53125,2.515625 1.59375,3.421875 1.0625,0.90625 2.347656,1.554688 3.859375,1.9375 2.0625,0.5625 3.09375,1.1875 3.09375,1.875 0,0.375 -0.25,0.640625 -0.75,0.796875 C 23.84375,0.015625 23.1875,0.09375 22.375,0.09375 21.550781,0.09375 20.359375,0.0625 18.796875,0 17.234375,-0.0625 15.570312,-0.09375 13.8125,-0.09375 11.75,-0.09375 9.742188,0 7.796875,0.1875 5.859375,0.375 4.101562,0.46875 2.53125,0.46875 Z m 22,-26.96875 h 14.5625 c 0.875,0 1.3125,-0.15625 1.3125,-0.46875 0,-0.125 -0.01563,-0.265625 -0.04687,-0.421875 -0.03125,-0.15625 -0.07813,-0.328125 -0.140625,-0.515625 l -7.328125,-22.9375 c -0.375,-1.125 -0.65625,-1.6875 -0.84375,-1.6875 -0.125,0 -0.375,0.53125 -0.75,1.59375 L 22.75,-27.90625 c -0.125,0.375 -0.1875,0.625 -0.1875,0.75 0,0.3125 0.171875,0.5 0.515625,0.5625 0.34375,0.0625 0.828125,0.09375 1.453125,0.09375 z m 0,0"
           id="path256" />
      </g>
    </g>
  </g>
  <g
     fill="#ffffff"
     fill-opacity="1"
     id="g270"
     transform="translate(-19.441409,-129.54803)">
    <g
       transform="translate(84.657966,194.01678)"
       id="g268">
      <g
         id="g266">
        <path
           d="m 4.140625,0.28125 c -0.5625,0 -1.023437,-0.078125 -1.375,-0.234375 C 2.421875,-0.109375 2.25,-0.375 2.25,-0.75 2.25,-1.25 2.4375,-1.578125 2.8125,-1.734375 3.195312,-1.890625 3.734375,-2.0625 4.421875,-2.25 c 0.9375,-0.25 1.84375,-0.59375 2.71875,-1.03125 0.875,-0.445312 1.3125,-1.296875 1.3125,-2.546875 V -26.03125 c 0,-1.695312 -0.171875,-3.140625 -0.515625,-4.328125 -0.34375,-1.1875 -1.328125,-2 -2.953125,-2.4375 -0.25,-0.125 -0.46875,-0.265625 -0.65625,-0.421875 -0.1875,-0.15625 -0.28125,-0.421875 -0.28125,-0.796875 0,-0.695313 0.28125,-1.078125 0.84375,-1.140625 2.1875,-0.5625 3.96875,-1.25 5.34375,-2.0625 1.382813,-0.8125 2.734375,-1.71875 4.046875,-2.71875 0.1875,-0.125 0.359375,-0.234375 0.515625,-0.328125 0.15625,-0.09375 0.328125,-0.140625 0.515625,-0.140625 0.125,0 0.234375,0.0625 0.328125,0.1875 0.101563,0.125 0.15625,0.28125 0.15625,0.46875 0,0.4375 -0.08594,1.328125 -0.25,2.671875 -0.15625,1.34375 -0.234375,2.460937 -0.234375,3.34375 0,0.25 0.01563,0.484375 0.04687,0.703125 0.03125,0.21875 0.07813,0.359375 0.140625,0.421875 2.195312,-2.070313 4.53125,-3.640625 7,-4.703125 2.476562,-1.0625 5.191406,-1.59375 8.140625,-1.59375 3.070313,0 5.609375,1.257812 7.609375,3.765625 2.007812,2.5 3.015625,5.601563 3.015625,9.296875 v 20.015625 c 0,1.25 0.4375,2.085937 1.3125,2.5 0.875,0.40625 1.78125,0.765625 2.71875,1.078125 0.5,0.1875 0.984375,0.390625 1.453125,0.609375 0.476562,0.21875 0.71875,0.578125 0.71875,1.078125 0,0.375 -0.226562,0.609375 -0.671875,0.703125 -0.4375,0.09375 -0.84375,0.140625 -1.21875,0.140625 -1.25,0 -2.21875,-0.046875 -2.90625,-0.140625 -0.6875,-0.09375 -1.351563,-0.171875 -1.984375,-0.234375 -0.625,-0.0625 -1.5,-0.09375 -2.625,-0.09375 -1.0625,0 -1.945312,0.03125 -2.640625,0.09375 -0.6875,0.0625 -1.390625,0.140625 -2.109375,0.234375 -0.71875,0.09375 -1.703125,0.140625 -2.953125,0.140625 -0.3125,0 -0.703125,-0.046875 -1.171875,-0.140625 C 28.718745,0.046875 28.48437,-0.1875 28.48437,-0.5625 c 0,-0.5 0.234375,-0.859375 0.703125,-1.078125 0.46875,-0.21875 0.953125,-0.421875 1.453125,-0.609375 0.9375,-0.3125 1.84375,-0.671875 2.71875,-1.078125 0.882813,-0.414063 1.328125,-1.25 1.328125,-2.5 V -25.5625 c 0,-2.757812 -0.773438,-4.90625 -2.3125,-6.4375 -1.53125,-1.53125 -3.585938,-2.328125 -6.15625,-2.390625 -2.25,0 -4.226562,0.359375 -5.921875,1.078125 -1.6875,0.71875 -3.1875,1.609375 -4.5,2.671875 -0.261719,0.25 -0.453125,0.578125 -0.578125,0.984375 -0.125,0.40625 -0.1875,0.796875 -0.1875,1.171875 v 22.65625 c 0,1.25 0.4375,2.101563 1.3125,2.546875 0.882812,0.4375 1.796875,0.78125 2.734375,1.03125 1.4375,0.375 2.15625,0.875 2.15625,1.5 0,0.375 -0.15625,0.640625 -0.46875,0.796875 -0.3125,0.15625 -0.78125,0.234375 -1.40625,0.234375 -1.25,0 -2.242187,-0.046875 -2.96875,-0.140625 C 15.671875,0.046875 15,-0.03125 14.375,-0.09375 13.75,-0.15625 12.875,-0.1875 11.75,-0.1875 c -1.0625,0 -1.929688,0.03125 -2.59375,0.09375 C 8.5,-0.03125 7.8125,0.046875 7.09375,0.140625 6.375,0.234375 5.390625,0.28125 4.140625,0.28125 Z m 0,0"
           id="path264" />
      </g>
    </g>
  </g>
  <g
     fill="#ffffff"
     fill-opacity="1"
     id="g278"
     transform="translate(-19.441409,-129.54803)">
    <g
       transform="translate(134.2755,194.01678)"
       id="g276">
      <g
         id="g274">
        <path
           d="M 18.328125,27.25 C 13.003906,27.25 8.789062,26.226562 5.6875,24.1875 2.582031,22.15625 1.03125,19.421875 1.03125,15.984375 c 0,-1.636719 0.25,-3.015625 0.75,-4.140625 0.5,-1.125 1.285156,-2.101562 2.359375,-2.921875 0.875,-0.75 2.046875,-1.703125 3.515625,-2.859375 1.476562,-1.15625 3,-2.367188 4.5625,-3.625 l 3.953125,0.1875 c -3.011719,1.945312 -5.117187,3.796875 -6.3125,5.546875 -1.1875,1.757813 -1.78125,3.890625 -1.78125,6.390625 0,2.507812 1.109375,4.625 3.328125,6.34375 2.226562,1.726562 4.972656,2.59375 8.234375,2.59375 3.695313,0 6.675781,-0.851562 8.9375,-2.546875 1.5625,-1.1875 2.78125,-2.742187 3.65625,-4.65625 0.875,-1.90625 1.3125,-3.921875 1.3125,-6.046875 0,-1.386719 -0.484375,-2.53125 -1.453125,-3.4375 -0.96875,-0.90625 -2.492188,-1.640625 -4.5625,-2.203125 -2.0625,-0.5625 -4.757812,-0.9375 -8.078125,-1.125 C 13.566406,3.035156 9.476562,2.25 7.1875,1.125 4.90625,0 3.765625,-1.753906 3.765625,-4.140625 c 0,-0.625 0.171875,-1.203125 0.515625,-1.734375 0.34375,-0.53125 0.890625,-1.109375 1.640625,-1.734375 1.4375,-1.125 2.5,-1.953125 3.1875,-2.484375 0.695313,-0.539062 1.21875,-1 1.5625,-1.375 0.34375,-0.375 0.671875,-0.84375 0.984375,-1.40625 l 3.1875,1.59375 c -1.375,0.5 -2.53125,1.179688 -3.46875,2.03125 -0.9375,0.84375 -1.40625,1.609375 -1.40625,2.296875 0,0.875 0.46875,1.640625 1.40625,2.296875 0.9375,0.65625 2.3125,1.179688 4.125,1.5625 1.820312,0.375 4.050781,0.65625 6.6875,0.84375 5.757812,0.3125 10.046875,1.25 12.859375,2.8125 2.820313,1.5625 4.234375,3.785156 4.234375,6.671875 0,2.445313 -0.609375,4.84375 -1.828125,7.1875 -1.21875,2.351563 -2.835937,4.5 -4.84375,6.4375 -2,1.945313 -4.242187,3.5 -6.71875,4.65625 -2.46875,1.15625 -4.992187,1.734375 -7.5625,1.734375 z m 1.125,-40.5 c 2.382813,0 4.359375,-1.203125 5.921875,-3.609375 1.5625,-2.414063 2.34375,-5.410156 2.34375,-8.984375 0,-1.820312 -0.421875,-3.53125 -1.265625,-5.125 -0.84375,-1.59375 -1.945313,-2.875 -3.296875,-3.84375 -1.34375,-0.976562 -2.796875,-1.46875 -4.359375,-1.46875 -1.4375,0 -2.804687,0.523438 -4.09375,1.5625 -1.28125,1.03125 -2.3125,2.359375 -3.09375,3.984375 -0.78125,1.625 -1.171875,3.414063 -1.171875,5.359375 0,2.1875 0.40625,4.210938 1.21875,6.0625 0.8125,1.84375 1.90625,3.320312 3.28125,4.421875 1.382812,1.09375 2.890625,1.640625 4.515625,1.640625 z m -0.5625,3.28125 c -2.574219,0 -5.023437,-0.65625 -7.34375,-1.96875 C 9.234375,-13.25 7.34375,-14.984375 5.875,-17.140625 4.40625,-19.304688 3.671875,-21.675781 3.671875,-24.25 c 0,-2.945312 0.765625,-5.53125 2.296875,-7.75 1.53125,-2.226562 3.550781,-3.96875 6.0625,-5.21875 2.507812,-1.25 5.171875,-1.875 7.984375,-1.875 1.820313,0 3.40625,0.234375 4.75,0.703125 1.34375,0.46875 2.675781,0.890625 4,1.265625 1.5,0.4375 2.6875,0.703125 3.5625,0.796875 0.875,0.09375 1.785156,0.140625 2.734375,0.140625 0.75,0 1.6875,-0.04687 2.8125,-0.140625 1.125,-0.09375 1.90625,-0.140625 2.34375,-0.140625 0.820312,0 1.234375,0.46875 1.234375,1.40625 0,0.574219 -0.320313,1.171875 -0.953125,1.796875 -0.3125,0.3125 -0.5625,0.46875 -0.75,0.46875 h -2.53125 c -1.6875,0 -2.632812,0.25 -2.828125,0.75 -0.0625,0.25 -0.140625,0.609375 -0.234375,1.078125 -0.09375,0.46875 -0.171875,0.984375 -0.234375,1.546875 -0.0625,0.5625 -0.09375,1.132813 -0.09375,1.703125 0,3.1875 -0.6875,6.132812 -2.0625,8.828125 -1.375,2.699219 -3.195313,4.859375 -5.453125,6.484375 -2.25,1.625 -4.726562,2.4375 -7.421875,2.4375 z m 0,0"
           id="path272" />
      </g>
    </g>
  </g>
  <g
     fill="#ffffff"
     fill-opacity="1"
     id="g286"
     transform="translate(-19.441409,-129.54803)">
    <g
       transform="translate(175.15359,194.01678)"
       id="g284">
      <g
         id="g282">
        <path
           d="m 20.015625,1.40625 c -3.449219,0 -6.460937,-0.84375 -9.03125,-2.53125 -2.5625,-1.695312 -4.570313,-4.09375 -6.015625,-7.1875 -1.4375,-3.101562 -2.15625,-6.691406 -2.15625,-10.765625 0,-3.632813 0.828125,-6.9375 2.484375,-9.90625 1.664063,-2.976563 3.878906,-5.375 6.640625,-7.1875 2.757812,-1.820313 5.765625,-2.734375 9.015625,-2.734375 2.507813,0 4.734375,0.5 6.671875,1.5 1.945312,1 3.46875,2.398438 4.5625,4.1875 1.09375,1.78125 1.640625,3.835938 1.640625,6.15625 0,1.9375 -0.9375,2.90625 -2.8125,2.90625 H 11.1875 c -0.875,0 -1.492188,0.234375 -1.84375,0.703125 -0.34375,0.46875 -0.515625,1.398437 -0.515625,2.78125 0,3 0.65625,5.742187 1.96875,8.21875 C 12.117188,-9.972656 13.875,-8 16.0625,-6.53125 c 2.195312,1.46875 4.613281,2.203125 7.25,2.203125 1.875,0 3.578125,-0.359375 5.109375,-1.078125 1.539063,-0.71875 2.90625,-1.765625 4.09375,-3.140625 0.25,-0.3125 0.4375,-0.515625 0.5625,-0.609375 0.125,-0.09375 0.28125,-0.140625 0.46875,-0.140625 0.5,0 0.75,0.3125 0.75,0.9375 0,1.1875 -0.5625,2.5 -1.6875,3.9375 -0.9375,1.199219 -2.070313,2.234375 -3.390625,3.109375 -1.3125,0.875 -2.75,1.546875 -4.3125,2.015625 -1.5625,0.46875 -3.195312,0.703125 -4.890625,0.703125 z M 11.375,-27.0625 h 8.546875 c 1.507813,0 2.796875,-0.03125 3.859375,-0.09375 1.0625,-0.0625 2.09375,-0.1875 3.09375,-0.375 0.3125,-0.0625 0.515625,-0.265625 0.609375,-0.609375 0.09375,-0.351563 0.140625,-0.84375 0.140625,-1.46875 0,-1.8125 -0.796875,-3.359375 -2.390625,-4.640625 -1.59375,-1.289062 -3.492187,-1.9375 -5.6875,-1.9375 -1.4375,0 -2.882813,0.429688 -4.328125,1.28125 -1.4375,0.84375 -2.625,1.890625 -3.5625,3.140625 -0.9375,1.25 -1.40625,2.507813 -1.40625,3.765625 0,0.625 0.375,0.9375 1.125,0.9375 z m 0,0"
           id="path280" />
      </g>
    </g>
  </g>
  <g
     fill="#ffffff"
     fill-opacity="1"
     id="g292"
     transform="translate(-19.441409,-129.54803)">
    <g
       transform="translate(211.79296,194.01678)"
       id="g290">
      <g
         id="g288" />
    </g>
  </g>
  <g
     fill="#ffffff"
     fill-opacity="1"
     id="g298"
     transform="translate(-19.441409,-129.54803)">
    <g
       transform="translate(230.58749,194.01678)"
       id="g296">
      <g
         id="g294" />
    </g>
  </g>
  <g
     fill="#ffffff"
     fill-opacity="1"
     id="g304"
     transform="translate(-19.441409,-129.54803)">
    <g
       transform="translate(249.38202,194.01678)"
       id="g302">
      <g
         id="g300" />
    </g>
  </g>
  <g
     fill="#ffffff"
     fill-opacity="1"
     id="g310"
     transform="translate(-19.441409,-129.54803)">
    <g
       transform="translate(268.17655,194.01678)"
       id="g308">
      <g
         id="g306" />
    </g>
  </g>
  <g
     fill="#ffffff"
     fill-opacity="1"
     id="g316"
     transform="translate(-19.441409,-129.54803)">
    <g
       transform="translate(286.97107,194.01678)"
       id="g314">
      <g
         id="g312" />
    </g>
  </g>
  <g
     fill="#ffffff"
     fill-opacity="1"
     id="g324"
     transform="translate(-19.441409,-129.54803)">
    <g
       transform="translate(305.75389,194.01678)"
       id="g322">
      <g
         id="g320">
        <path
           d="m 4.140625,0.28125 c -0.5625,0 -1.023437,-0.078125 -1.375,-0.234375 C 2.421875,-0.109375 2.25,-0.375 2.25,-0.75 2.25,-1.25 2.4375,-1.578125 2.8125,-1.734375 3.195312,-1.890625 3.734375,-2.0625 4.421875,-2.25 c 0.9375,-0.25 1.84375,-0.59375 2.71875,-1.03125 0.875,-0.445312 1.3125,-1.296875 1.3125,-2.546875 V -26.03125 c 0,-1.695312 -0.171875,-3.140625 -0.515625,-4.328125 -0.34375,-1.1875 -1.328125,-2 -2.953125,-2.4375 -0.25,-0.125 -0.46875,-0.265625 -0.65625,-0.421875 -0.1875,-0.15625 -0.28125,-0.421875 -0.28125,-0.796875 0,-0.695313 0.28125,-1.078125 0.84375,-1.140625 2.1875,-0.5625 3.96875,-1.25 5.34375,-2.0625 1.382813,-0.8125 2.734375,-1.71875 4.046875,-2.71875 0.1875,-0.125 0.359375,-0.234375 0.515625,-0.328125 0.15625,-0.09375 0.328125,-0.140625 0.515625,-0.140625 0.125,0 0.234375,0.0625 0.328125,0.1875 0.101563,0.125 0.15625,0.28125 0.15625,0.46875 0,0.4375 -0.08594,1.328125 -0.25,2.671875 -0.15625,1.34375 -0.234375,2.460937 -0.234375,3.34375 0,0.25 0.01563,0.484375 0.04687,0.703125 0.03125,0.21875 0.07813,0.359375 0.140625,0.421875 2.195312,-2.070313 4.53125,-3.640625 7,-4.703125 2.476562,-1.0625 5.191406,-1.59375 8.140625,-1.59375 3.070313,0 5.609375,1.257812 7.609375,3.765625 2.007812,2.5 3.015625,5.601563 3.015625,9.296875 v 20.015625 c 0,1.25 0.4375,2.085937 1.3125,2.5 0.875,0.40625 1.78125,0.765625 2.71875,1.078125 0.5,0.1875 0.984375,0.390625 1.453125,0.609375 0.476562,0.21875 0.71875,0.578125 0.71875,1.078125 0,0.375 -0.226562,0.609375 -0.671875,0.703125 -0.4375,0.09375 -0.84375,0.140625 -1.21875,0.140625 -1.25,0 -2.21875,-0.046875 -2.90625,-0.140625 -0.6875,-0.09375 -1.351563,-0.171875 -1.984375,-0.234375 -0.625,-0.0625 -1.5,-0.09375 -2.625,-0.09375 -1.0625,0 -1.945312,0.03125 -2.640625,0.09375 -0.6875,0.0625 -1.390625,0.140625 -2.109375,0.234375 -0.71875,0.09375 -1.703125,0.140625 -2.953125,0.140625 -0.3125,0 -0.703125,-0.046875 -1.171875,-0.140625 C 28.718745,0.046875 28.48437,-0.1875 28.48437,-0.5625 c 0,-0.5 0.234375,-0.859375 0.703125,-1.078125 0.46875,-0.21875 0.953125,-0.421875 1.453125,-0.609375 0.9375,-0.3125 1.84375,-0.671875 2.71875,-1.078125 0.882813,-0.414063 1.328125,-1.25 1.328125,-2.5 V -25.5625 c 0,-2.757812 -0.773438,-4.90625 -2.3125,-6.4375 -1.53125,-1.53125 -3.585938,-2.328125 -6.15625,-2.390625 -2.25,0 -4.226562,0.359375 -5.921875,1.078125 -1.6875,0.71875 -3.1875,1.609375 -4.5,2.671875 -0.261719,0.25 -0.453125,0.578125 -0.578125,0.984375 -0.125,0.40625 -0.1875,0.796875 -0.1875,1.171875 v 22.65625 c 0,1.25 0.4375,2.101563 1.3125,2.546875 0.882812,0.4375 1.796875,0.78125 2.734375,1.03125 1.4375,0.375 2.15625,0.875 2.15625,1.5 0,0.375 -0.15625,0.640625 -0.46875,0.796875 -0.3125,0.15625 -0.78125,0.234375 -1.40625,0.234375 -1.25,0 -2.242187,-0.046875 -2.96875,-0.140625 C 15.671875,0.046875 15,-0.03125 14.375,-0.09375 13.75,-0.15625 12.875,-0.1875 11.75,-0.1875 c -1.0625,0 -1.929688,0.03125 -2.59375,0.09375 C 8.5,-0.03125 7.8125,0.046875 7.09375,0.140625 6.375,0.234375 5.390625,0.28125 4.140625,0.28125 Z m 0,0"
           id="path318" />
      </g>
    </g>
  </g>
  <g
     fill="#ffffff"
     fill-opacity="1"
     id="g330"
     transform="translate(-19.441409,-129.54803)">
    <g
       transform="translate(355.37108,194.01678)"
       id="g328">
      <g
         id="g326" />
    </g>
  </g>
  <g
     clip-path="url(#536628875b)"
     id="g334"
     transform="translate(-19.441409,-129.54803)">
    <path
       fill="#289dd2"
       d="m 269.76562,155.90625 c -1.58203,0 -2.86328,-1.28125 -2.86328,-2.86328 v -17.1836 c 0,-1.57812 1.28125,-2.86328 2.86328,-2.86328 1.58204,0 2.86329,1.28516 2.86329,2.86328 v 17.1836 c 0,1.58203 -1.28125,2.86328 -2.86329,2.86328 z m 0,0"
       fill-opacity="1"
       fill-rule="nonzero"
       id="path332" />
  </g>
  <g
     clip-path="url(#c8bdd60597)"
     id="g338"
     transform="translate(-19.441409,-129.54803)">
    <path
       fill="#289dd2"
       d="m 269.76562,195.99609 c -17.37109,0 -31.5,-14.1289 -31.5,-31.5 0,-12.41797 7.32813,-23.71484 18.67579,-28.77734 1.4414,-0.64844 3.13671,0.004 3.78125,1.44531 0.64453,1.44531 -0.004,3.14063 -1.44922,3.78516 -9.28125,4.14453 -15.28125,13.38672 -15.28125,23.54687 0,14.21094 11.5625,25.77344 25.77343,25.77344 14.21094,0 25.77344,-11.5625 25.77344,-25.77344 0,-10.24609 -6.07031,-19.52343 -15.46484,-23.6289 -1.44922,-0.63282 -2.11328,-2.32032 -1.47656,-3.76953 0.63281,-1.44532 2.3164,-2.10938 3.76953,-1.48047 11.48047,5.01953 18.89843,16.35547 18.89843,28.8789 0,17.3711 -14.1289,31.5 -31.5,31.5 z m 0,0"
       fill-opacity="1"
       fill-rule="nonzero"
       id="path336" />
  </g>
  <path
     stroke-linecap="round"
     fill="none"
     stroke-linejoin="miter"
     d="M 205.77344,63.420725 205.63672,6.4168157"
     stroke="#289dd2"
     stroke-width="6.00112"
     stroke-opacity="1"
     stroke-miterlimit="4"
     id="path340" />
</svg>
